# xmcd
# 
# Track frame offsets:
#     150
#     16349
#     34582
#     53109
#     72974
#     91299
#     107441
#     124016
#     142084
#     161476
#     177676
#     193547
#     207292
# 
# Disc length: 2946
# 
# Revision: 3
# Processed by: cddbd v1.5.2PL0 Copyright (c) Steve Scherf et al.
# Submitted via: fre:ac v1.0.31
# 
DISCID=b20b800d
DTITLE=Korn - The Paradigm Shift
DYEAR=2013
DGENRE=Loud Rock
TTITLE0=Prey For Me
TTITLE1=Love and Meth
TTITLE2=What We Do
TTITLE3=Spike In My Veins
TTITLE4=Mass Hysteria
TTITLE5=Paranoid And Aroused
TTITLE6=Never Never
TTITLE7=Punishment Time
TTITLE8=Lullaby For A Sadist
TTITLE9=Victimized
TTITLE10=It's All Wrong
TTITLE11=Wish I Wasn't Born Today (Bonus Track)
TTITLE12=Tell Me What You Want (Bonus Track)
EXTD=YEAR: 2013
EXTT0=
EXTT1=
EXTT2=
EXTT3=
EXTT4=
EXTT5=
EXTT6=
EXTT7=
EXTT8=
EXTT9=
EXTT10=
EXTT11=
EXTT12=
PLAYORDER=
